<svg width="52" height="33" viewBox="0 0 52 33" fill="none" xmlns="http://www.w3.org/2000/svg">
<path d="M2.29751 -0.00683594C1.15398 -0.00683594 0.226562 0.920326 0.226562 2.06411V30.436C0.226562 31.5798 1.15445 32.507 2.29751 32.507H49.9292C51.0727 32.507 52.0001 31.5798 52.0001 30.436V2.06411C52.0001 0.920377 51.0723 -0.00683594 49.9292 -0.00683594H2.29751ZM31.1483 9.6829C32.4084 9.6829 33.4182 9.96124 34.0622 10.2201L33.6221 12.9883L33.3309 12.8411C32.731 12.5823 31.9605 12.3332 30.8975 12.3508C29.6252 12.3508 29.037 12.9184 29.037 13.4495C29.0296 14.0478 29.7243 14.4424 30.8603 15.0334C32.7354 15.9451 33.602 17.0506 33.5898 18.5038C33.5646 21.1555 31.3468 22.869 27.9303 22.869C26.4727 22.853 25.0685 22.5444 24.3094 22.1878L24.7656 19.3273L25.1847 19.5312C26.2521 20.0082 26.9433 20.2011 28.2441 20.2011C29.1783 20.2011 30.1809 19.8099 30.1889 18.9536C30.195 18.3945 29.7698 17.9958 28.5046 17.3697C27.2718 16.7585 25.6374 15.7348 25.6555 13.8992C25.6748 11.4161 27.9368 9.6829 31.1483 9.6829ZM4.80526 10.089H10.0522C10.7588 10.1157 11.3292 10.3432 11.5261 11.1099L12.6571 16.9474C12.6572 16.9479 12.6569 16.9501 12.6571 16.9506L12.9968 18.6996L16.1825 10.089H19.6287L14.5063 22.6927L11.0634 22.6959L8.32266 12.5256C9.95342 13.3895 11.3418 14.3891 12.1458 15.7647C11.9385 15.3294 11.6654 14.8381 11.3158 14.3539C10.9088 13.7899 10.0297 13.0619 9.6623 12.7521C8.38194 11.6728 6.64312 10.8011 4.76483 10.3398L4.80526 10.089ZM20.9991 10.1036H24.3693L22.261 22.6878H18.8909L20.9991 10.1036ZM40.034 10.1036H42.5871L45.2599 22.6878H42.1955C42.1955 22.6878 41.8915 21.2421 41.7927 20.8013C41.311 20.8013 37.9424 20.7965 37.5634 20.7965C37.4352 21.1371 36.8677 22.6878 36.8677 22.6878H33.4005L38.3044 11.1488C38.6516 10.3288 39.2434 10.1036 40.034 10.1036ZM40.2848 13.4883C40.1189 13.9563 39.8302 14.7122 39.8495 14.6791C39.8495 14.6791 38.8121 17.4458 38.5407 18.1641L41.2668 18.1624C41.0136 16.9625 40.7601 15.7625 40.5064 14.5627L40.2848 13.4884V13.4883Z" fill="#112211"/>
</svg>
